<svg aria-hidden="true" style="position: absolute; width: 0; height: 0; overflow: hidden;" version="1.1"
    xmlns="http://www.w3.org/2000/svg" xmlns:xlink="http://www.w3.org/1999/xlink">
    <defs>
        <symbol id="icon-facebook" viewBox="0 0 18 32">
            <path
                d="M13.329 5.313h2.921v-5.088c-0.504-0.069-2.237-0.225-4.256-0.225-4.212 0-7.097 2.649-7.097 7.519v4.481h-4.648v5.688h4.648v14.312h5.699v-14.311h4.46l0.708-5.688h-5.169v-3.919c0.001-1.644 0.444-2.769 2.735-2.769z">
            </path>
        </symbol>
        <symbol id="icon-instagram" viewBox="0 0 32 32">
            <path fill="#ff6c00" style="fill: var(--color1, #ff6c00)"
                d="M31.969 9.408c-0.075-1.7-0.35-2.869-0.744-3.882-0.406-1.075-1.031-2.038-1.85-2.838-0.8-0.813-1.769-1.444-2.832-1.844-1.019-0.394-2.182-0.669-3.882-0.744-1.713-0.081-2.257-0.1-6.601-0.1s-4.888 0.019-6.595 0.094c-1.7 0.075-2.869 0.35-3.882 0.744-1.075 0.406-2.038 1.031-2.838 1.85-0.813 0.8-1.444 1.769-1.844 2.832-0.394 1.019-0.669 2.182-0.744 3.882-0.081 1.713-0.1 2.257-0.1 6.601s0.019 4.888 0.094 6.595c0.075 1.7 0.35 2.869 0.744 3.882 0.406 1.075 1.038 2.038 1.85 2.838 0.8 0.813 1.769 1.444 2.832 1.844 1.019 0.394 2.182 0.669 3.882 0.744 1.706 0.075 2.25 0.094 6.595 0.094s4.888-0.019 6.595-0.094c1.7-0.075 2.869-0.35 3.882-0.744 2.151-0.832 3.851-2.532 4.682-4.682 0.394-1.019 0.669-2.182 0.744-3.882 0.075-1.707 0.094-2.251 0.094-6.595s-0.006-4.888-0.081-6.595zM29.087 22.473c-0.069 1.563-0.331 2.407-0.55 2.969-0.538 1.394-1.644 2.5-3.038 3.038-0.563 0.219-1.413 0.481-2.969 0.55-1.688 0.075-2.194 0.094-6.464 0.094s-4.782-0.019-6.464-0.094c-1.563-0.069-2.407-0.331-2.969-0.55-0.694-0.256-1.325-0.663-1.838-1.194-0.531-0.519-0.938-1.144-1.194-1.838-0.219-0.563-0.481-1.413-0.55-2.969-0.075-1.688-0.094-2.194-0.094-6.464s0.019-4.782 0.094-6.464c0.069-1.563 0.331-2.407 0.55-2.969 0.256-0.694 0.663-1.325 1.2-1.838 0.519-0.531 1.144-0.938 1.838-1.194 0.563-0.219 1.413-0.481 2.969-0.55 1.688-0.075 2.194-0.094 6.464-0.094 4.276 0 4.782 0.019 6.464 0.094 1.563 0.069 2.407 0.331 2.969 0.55 0.694 0.256 1.325 0.662 1.838 1.194 0.531 0.519 0.938 1.144 1.194 1.838 0.219 0.563 0.481 1.413 0.55 2.969 0.075 1.688 0.094 2.194 0.094 6.464s-0.019 4.77-0.094 6.458z">
            </path>
            <path fill="#ff6c00" style="fill: var(--color1, #ff6c00)"
                d="M16.059 7.783c-4.538 0-8.22 3.682-8.22 8.22s3.682 8.22 8.22 8.22c4.538 0 8.22-3.682 8.22-8.22s-3.682-8.22-8.22-8.22zM16.059 21.336c-2.944 0-5.332-2.388-5.332-5.332s2.388-5.332 5.332-5.332c2.944 0 5.332 2.388 5.332 5.332s-2.388 5.332-5.332 5.332z">
            </path>
            <path fill="#ff6c00" style="fill: var(--color1, #ff6c00)"
                d="M26.524 7.458c0 1.060-0.859 1.919-1.919 1.919s-1.919-0.859-1.919-1.919c0-1.060 0.859-1.919 1.919-1.919s1.919 0.859 1.919 1.919z">
            </path>
        </symbol>
        <symbol id="icon-linkedin" viewBox="0 0 32 32">
            <path
                d="M31.992 32v-0.001h0.008v-11.736c0-5.741-1.236-10.164-7.948-10.164-3.227 0-5.392 1.771-6.276 3.449h-0.093v-2.913h-6.364v21.364h6.627v-10.579c0-2.785 0.528-5.479 3.977-5.479 3.399 0 3.449 3.179 3.449 5.657v10.401h6.62z">
            </path>
            <path d="M0.528 10.636h6.635v21.364h-6.635v-21.364z"></path>
            <path
                d="M3.843 0c-2.121 0-3.843 1.721-3.843 3.843s1.721 3.879 3.843 3.879c2.121 0 3.843-1.757 3.843-3.879-0.001-2.121-1.723-3.843-3.843-3.843v0z">
            </path>
        </symbol>
        <symbol id="icon-twiter" viewBox="0 0 36 32">
            <path
                d="M35.556 4.976c-1.322 0.58-2.731 0.964-4.2 1.151 1.511-0.902 2.665-2.32 3.207-4.029-1.409 0.84-2.964 1.433-4.622 1.764-1.338-1.424-3.244-2.307-5.324-2.307-4.035 0-7.284 3.276-7.284 7.291 0 0.578 0.049 1.133 0.169 1.662-6.060-0.296-11.422-3.2-15.024-7.624-0.629 1.091-0.998 2.34-0.998 3.684 0 2.524 1.3 4.762 3.238 6.058-1.171-0.022-2.32-0.362-3.293-0.898 0 0.022 0 0.051 0 0.080 0 3.542 2.527 6.484 5.84 7.162-0.593 0.162-1.24 0.24-1.911 0.24-0.467 0-0.938-0.026-1.38-0.124 0.944 2.887 3.624 5.009 6.811 5.078-2.48 1.94-5.629 3.109-9.038 3.109-0.598 0-1.171-0.026-1.744-0.1 3.229 2.082 7.056 3.271 11.182 3.271 13.413 0 20.747-11.111 20.747-20.742 0-0.322-0.011-0.633-0.027-0.942 1.447-1.027 2.662-2.309 3.653-3.784z">
            </path>
        </symbol>
        <symbol id="icon-person-black-18dp-1" viewBox="0 0 32 32">
            <path
                d="M16.004 16.004c2.946 0 5.335-2.388 5.335-5.335s-2.388-5.335-5.335-5.335v0c-2.946 0-5.335 2.388-5.335 5.335s2.388 5.335 5.335 5.335v0zM16.004 18.672c-3.562 0-10.669 1.787-10.669 5.335v1.334c0 0.733 0.599 1.334 1.334 1.334h18.672c0.733 0 1.334-0.601 1.334-1.334v-1.334c0-3.548-7.109-5.335-10.669-5.335z">
            </path>
        </symbol>

        <symbol id="icon-phone-black-18dp-1" viewBox="0 0 32 32">
            <path
                d="M24.888 19.779l-3.268-0.373c-0.090-0.011-0.194-0.018-0.3-0.018-0.707 0-1.348 0.287-1.811 0.75l-2.369 2.369c-3.67-1.894-6.587-4.812-8.43-8.374l-0.051-0.108 2.383-2.378c0.464-0.463 0.75-1.104 0.75-1.811 0-0.106-0.006-0.21-0.019-0.312l0.001 0.012-0.373-3.244c-0.155-1.288-1.241-2.276-2.557-2.276-0.001 0-0.002 0-0.003 0h-2.226c-1.455 0-2.664 1.209-2.575 2.662 0.683 10.99 9.473 19.767 20.45 20.45 1.453 0.089 2.664-1.12 2.664-2.575v-2.226c0-0.004 0-0.008 0-0.012 0-1.308-0.985-2.386-2.254-2.533l-0.012-0.001z">
            </path>
        </symbol>

        <symbol id="icon-email-black-18dp-1" viewBox="0 0 32 32">
            <path
                d="M26.674 5.335h-21.339c-1.467 0-2.653 1.2-2.653 2.667l-0.014 16.004c0 1.467 1.2 2.667 2.667 2.667h21.339c1.467 0 2.667-1.2 2.667-2.667v-16.004c0-1.467-1.2-2.667-2.667-2.667zM26.14 11.004l-9.428 5.893c-0.201 0.126-0.446 0.2-0.708 0.2s-0.506-0.075-0.713-0.204l0.006 0.003-9.428-5.893c-0.336-0.201-0.557-0.562-0.557-0.976 0-0.626 0.507-1.133 1.133-1.133 0.233 0 0.449 0.070 0.629 0.19l-0.004-0.003 8.936 5.587 8.936-5.589c0.176-0.118 0.392-0.188 0.625-0.188 0.626 0 1.133 0.507 1.133 1.133 0 0.413-0.221 0.775-0.552 0.973l-0.005 0.003z">
            </path>
        </symbol>

        <symbol id="icon-Vector-1" viewBox="0 0 34 32">
            <path
                d="M30.348 3.564v24.894h-26.554v-24.894h26.554zM30.348 0.007h-26.554c-2.087 0-3.794 1.6-3.794 3.557v24.894c0 1.957 1.707 3.557 3.794 3.557h26.554c2.087 0 3.794-1.6 3.794-3.557v-24.894c0-1.957-1.707-3.557-3.794-3.557z">
            </path>
        </symbol>

        <symbol id="icon-close" viewBox="0 0 32 32">
            <path
                d="M26.674 7.305l-1.97-1.97-7.81 7.81-7.81-7.81-1.97 1.97 7.81 7.81-7.81 7.81 1.97 1.97 7.81-7.81 7.81 7.81 1.97-1.97-7.81-7.81 7.81-7.81z">
            </path>
        </symbol>

        <symbol id="icon-Vector-1" viewBox="0 0 34 32">
            <path
                d="M30.348 3.564v24.894h-26.554v-24.894h26.554zM30.348 0.007h-26.554c-2.087 0-3.794 1.6-3.794 3.557v24.894c0 1.957 1.707 3.557 3.794 3.557h26.554c2.087 0 3.794-1.6 3.794-3.557v-24.894c0-1.957-1.707-3.557-3.794-3.557z">
            </path>
        </symbol>


    </defs>
</svg>